<?xml version="1.0" encoding="utf-8"?>
<!-- Generator: Adobe Illustrator 21.0.2, SVG Export Plug-In . SVG Version: 6.00 Build 0)  -->
<svg version="1.1" xmlns="http://www.w3.org/2000/svg" xmlns:xlink="http://www.w3.org/1999/xlink" x="0px" y="0px"
	 viewBox="0 0 1000 260" style="enable-background:new 0 0 1000 260;" xml:space="preserve">
<style type="text/css">
	.st0{display:none;}
	.st1{display:inline;}
	.st2{fill:url(#SVGID_1_);}
	.st3{fill:url(#SVGID_2_);}
	.st4{fill:url(#SVGID_3_);}
	.st5{fill:url(#SVGID_4_);}
	.st6{fill:url(#SVGID_5_);}
	.st7{fill:url(#SVGID_6_);}
	.st8{fill:#FFFFFF;}
	.st9{fill:url(#SVGID_7_);}
	.st10{fill:url(#SVGID_8_);}
	.st11{fill:url(#SVGID_9_);}
	.st12{fill:url(#SVGID_10_);}
	.st13{fill:url(#SVGID_11_);}
	.st14{fill:url(#SVGID_12_);}
	.st15{fill:#0A0A0A;}
</style>
<g id="bs" class="st0">
	<g class="st1">
		<g>
			<polygon points="-355.6,-171.4 -286.7,-52 -631.1,544.5 -768.9,544.5 			"/>
			<path d="M-263.7-12.3l49,84.9c12.3,21.3,12.3,47.6,0,68.9l-212.8,368.6c-12.3,21.3-35,34.4-59.7,34.4h-98L-263.7-12.3z"/>
			<path d="M-992.3-261.6l-29.1,50.4l252.6,437.5L-700,107l-212.8-368.6C-930.5-292.2-974.7-292.2-992.3-261.6z"/>
			<path d="M-890.2-222.3l-22.7-39.2c-17.7-30.6-61.9-30.6-79.5,0l-192.9,334.2c-12.3,21.3-12.3,47.6,0,68.9l49,84.9l193.4-335
				c12-20.1,34-33.6,59.1-33.6c25.1,0,47.1,13.5,59.2,33.6L-890.2-222.3z"/>
			<path d="M-1120.1,15.7c-4.3-8.6-6.8-18-6.8-28c0-10,2.5-19.5,6.8-28l-27.1,47l0,0l-38,65.9c-12.3,21.3-12.3,47.6,0,68.9
				l212.8,368.6c6.2,10.7,14.9,19.3,25.2,25.2l63.6-110.1L-1120.1,15.7z"/>
			<path d="M-407.7-261.6c-17.7-30.6-61.9-30.6-79.5,0l-396.5,686.8l-10.1,17.5c-12.1,19.8-33.9,33-58.8,33
				c-24.9,0-46.7-13.2-58.8-32.9l38.9,67.3c6.2,10.7,14.9,19.3,25.2,25.2c10.3,5.9,22.1,9.2,34.4,9.2h98l436.3-755.6L-407.7-261.6z"
				/>
		</g>
	</g>
</g>
<g id="Layer_7" class="st0">
	<g class="st1">
		<linearGradient id="SVGID_1_" gradientUnits="userSpaceOnUse" x1="-756.9817" y1="553.842" x2="-276.7929" y2="-115.212">
			<stop  offset="0" style="stop-color:#0063BD"/>
			<stop  offset="1" style="stop-color:#0F4C81"/>
		</linearGradient>
		<polygon class="st2" points="-355.5,-171.7 -286.5,-52.3 -631.4,545 -769.3,545 		"/>
		<linearGradient id="SVGID_2_" gradientUnits="userSpaceOnUse" x1="-567.1569" y1="558.089" x2="-193.6766" y2="37.7136">
			<stop  offset="0" style="stop-color:#0063BD"/>
			<stop  offset="1" style="stop-color:#0F4C81"/>
		</linearGradient>
		<path class="st3" d="M-263.6-12.4l49.1,85c12.3,21.3,12.3,47.6,0,69l-213.1,369c-12.3,21.3-35.1,34.5-59.7,34.5h-98.1L-263.6-12.4
			z"/>
		<linearGradient id="SVGID_3_" gradientUnits="userSpaceOnUse" x1="-852.8823" y1="-37.2876" x2="-650.5845" y2="324.3969">
			<stop  offset="0" style="stop-color:#0063BD"/>
			<stop  offset="1" style="stop-color:#0F4C81"/>
		</linearGradient>
		<path class="st4" d="M-993-262l-29.1,50.5l252.9,438l69-119.5l-213.1-369C-931.1-292.7-975.3-292.7-993-262z"/>
		<linearGradient id="SVGID_4_" gradientUnits="userSpaceOnUse" x1="-816.17" y1="-301.7763" x2="-1187.0487" y2="161.055">
			<stop  offset="0" style="stop-color:#0063BD"/>
			<stop  offset="1" style="stop-color:#0F4C81"/>
		</linearGradient>
		<path class="st5" d="M-890.7-222.7l-22.7-39.3c-17.7-30.7-61.9-30.7-79.6,0l-193.1,334.5c-12.3,21.3-12.3,47.6,0,69l49.1,85
			L-943.5-109c12-20.1,34.1-33.6,59.2-33.6c25.2,0,47.2,13.5,59.2,33.6L-890.7-222.7z"/>
		<linearGradient id="SVGID_5_" gradientUnits="userSpaceOnUse" x1="-1109.2677" y1="133.9205" x2="-873.2535" y2="578.3636">
			<stop  offset="0" style="stop-color:#0063BD"/>
			<stop  offset="1" style="stop-color:#0F4C81"/>
		</linearGradient>
		<path class="st6" d="M-1120.9,15.6c-4.3-8.6-6.8-18.1-6.8-28.1c0-10,2.5-19.5,6.8-28.1l-27.2,47.1l0,0l-38.1,66
			c-12.3,21.3-12.3,47.6,0,69l213.1,369c6.2,10.7,14.9,19.3,25.2,25.2l63.6-110.2L-1120.9,15.6z"/>
		<linearGradient id="SVGID_6_" gradientUnits="userSpaceOnUse" x1="-857.963" y1="402.0255" x2="-505.4737" y2="-180.3474">
			<stop  offset="0" style="stop-color:#0063BD"/>
			<stop  offset="1" style="stop-color:#0F4C81"/>
		</linearGradient>
		<path class="st7" d="M-407.6-262c-17.7-30.7-61.9-30.7-79.6,0l-397,687.6l-10.1,17.5c-12.1,19.8-33.9,33-58.9,33
			c-24.9,0-46.7-13.2-58.8-33l38.9,67.4c6.2,10.7,14.9,19.3,25.2,25.2c10.3,6,22.2,9.2,34.5,9.2h98.1l436.8-756.5L-407.6-262z"/>
	</g>
</g>
<g id="ws" class="st0">
	<g class="st1">
		<g>
			<polygon class="st8" points="-355.6,-171.4 -286.7,-52 -631.1,544.5 -768.9,544.5 			"/>
			<path class="st8" d="M-263.7-12.3l49,84.9c12.3,21.3,12.3,47.6,0,68.9l-212.8,368.6c-12.3,21.3-35,34.4-59.7,34.4h-98
				L-263.7-12.3z"/>
			<path class="st8" d="M-992.3-261.6l-29.1,50.4l252.6,437.5L-700,107l-212.8-368.6C-930.5-292.2-974.7-292.2-992.3-261.6z"/>
			<path class="st8" d="M-890.2-222.3l-22.7-39.2c-17.7-30.6-61.9-30.6-79.5,0l-192.9,334.2c-12.3,21.3-12.3,47.6,0,68.9l49,84.9
				l193.4-335c12-20.1,34-33.6,59.1-33.6c25.1,0,47.1,13.5,59.2,33.6L-890.2-222.3z"/>
			<path class="st8" d="M-1120.1,15.7c-4.3-8.6-6.8-18-6.8-28c0-10,2.5-19.5,6.8-28l-27.1,47l0,0l-38,65.9
				c-12.3,21.3-12.3,47.6,0,68.9l212.8,368.6c6.2,10.7,14.9,19.3,25.2,25.2l63.6-110.1L-1120.1,15.7z"/>
			<path class="st8" d="M-407.7-261.6c-17.7-30.6-61.9-30.6-79.5,0l-396.5,686.8l-10.1,17.5c-12.1,19.8-33.9,33-58.8,33
				c-24.9,0-46.7-13.2-58.8-32.9l38.9,67.3c6.2,10.7,14.9,19.3,25.2,25.2c10.3,5.9,22.1,9.2,34.4,9.2h98l436.3-755.6L-407.7-261.6z"
				/>
		</g>
	</g>
</g>
<g id="st">
	<g>
		<g>
			<linearGradient id="SVGID_7_" gradientUnits="userSpaceOnUse" x1="136.649" y1="252.3273" x2="275.2389" y2="59.2281">
				<stop  offset="0" style="stop-color:#0063BD"/>
				<stop  offset="1" style="stop-color:#0F4C81"/>
			</linearGradient>
			<polygon class="st9" points="252.5,42.9 272.4,77.4 172.9,249.8 133.1,249.8 			"/>
			<linearGradient id="SVGID_8_" gradientUnits="userSpaceOnUse" x1="191.4354" y1="253.5531" x2="299.2276" y2="103.3647">
				<stop  offset="0" style="stop-color:#0063BD"/>
				<stop  offset="1" style="stop-color:#0F4C81"/>
			</linearGradient>
			<path class="st10" d="M279.1,88.9l14.2,24.5c3.6,6.2,3.6,13.7,0,19.9l-61.5,106.5c-3.6,6.2-10.1,10-17.2,10h-28.3L279.1,88.9z"/>
			<linearGradient id="SVGID_9_" gradientUnits="userSpaceOnUse" x1="108.9706" y1="81.7182" x2="167.3569" y2="186.106">
				<stop  offset="0" style="stop-color:#0063BD"/>
				<stop  offset="1" style="stop-color:#0F4C81"/>
			</linearGradient>
			<path class="st11" d="M68.5,16.9l-8.4,14.6l73,126.4l19.9-34.5L91.5,16.9C86.4,8,73.6,8,68.5,16.9z"/>
			<linearGradient id="SVGID_10_" gradientUnits="userSpaceOnUse" x1="119.5664" y1="5.3827" x2="12.5251" y2="138.963">
				<stop  offset="0" style="stop-color:#0063BD"/>
				<stop  offset="1" style="stop-color:#0F4C81"/>
			</linearGradient>
			<path class="st12" d="M98.1,28.2l-6.5-11.3c-5.1-8.8-17.9-8.8-23,0l-55.7,96.6c-3.6,6.2-3.6,13.7,0,19.9l14.2,24.5L82.8,61
				c3.5-5.8,9.8-9.7,17.1-9.7c7.3,0,13.6,3.9,17.1,9.7L98.1,28.2z"/>
			<linearGradient id="SVGID_11_" gradientUnits="userSpaceOnUse" x1="34.9739" y1="131.1315" x2="103.0912" y2="259.4047">
				<stop  offset="0" style="stop-color:#0063BD"/>
				<stop  offset="1" style="stop-color:#0F4C81"/>
			</linearGradient>
			<path class="st13" d="M31.6,97c-1.3-2.5-2-5.2-2-8.1c0-2.9,0.7-5.6,2-8.1l-7.8,13.6l0,0l-11,19c-3.6,6.2-3.6,13.7,0,19.9
				l61.5,106.5c1.8,3.1,4.3,5.6,7.3,7.3l18.4-31.8L31.6,97z"/>
			<linearGradient id="SVGID_12_" gradientUnits="userSpaceOnUse" x1="107.5043" y1="208.5108" x2="209.2381" y2="40.429">
				<stop  offset="0" style="stop-color:#0063BD"/>
				<stop  offset="1" style="stop-color:#0F4C81"/>
			</linearGradient>
			<path class="st14" d="M237.5,16.9c-5.1-8.8-17.9-8.8-23,0L99.9,215.3l-2.9,5.1c-3.5,5.7-9.8,9.5-17,9.5c-7.2,0-13.5-3.8-17-9.5
				l11.2,19.5c1.8,3.1,4.3,5.6,7.3,7.3c3,1.7,6.4,2.7,10,2.7h28.3L245.9,31.4L237.5,16.9z"/>
		</g>
		<g>
			<path class="st15" d="M364.1,57.5H395v154.7h-30.9V57.5z"/>
			<path class="st15" d="M431.9,57.5h31.6l44.9,82.4l15.5,33.4h1c-1.7-16.1-4-36.6-4-54.1V57.5h29.3v154.7h-31.4l-44.7-82.8
				l-15.7-33.2h-1c1.5,16.7,3.8,36.2,3.8,53.9v62.1h-29.3V57.5z"/>
			<path class="st15" d="M618.6,83.2h-43.5V57.5h118.3v25.7h-43.9v129h-30.9V83.2z"/>
			<path class="st15" d="M802.5,212.2l-31.8-58.5h-21.5v58.5h-30.9V57.5h53.9c32.4,0,58.1,11.3,58.1,46.8
				c0,23.2-11.7,37.6-29.5,44.5l36.2,63.3H802.5z M749.2,129.2h20.1c19.9,0,30.7-8.4,30.7-24.9c0-16.7-10.9-22.4-30.7-22.4h-20.1
				V129.2z"/>
			<path class="st15" d="M851.5,134.2c0-50.4,28.2-79.7,69.2-79.7c41,0,69.2,29.5,69.2,79.7s-28.2,80.9-69.2,80.9
				C879.7,215.2,851.5,184.4,851.5,134.2z M958.3,134.2c0-33.2-14.6-53.1-37.6-53.1c-23,0-37.6,19.9-37.6,53.1
				c0,33,14.6,54.1,37.6,54.1C943.7,188.4,958.3,167.3,958.3,134.2z"/>
		</g>
	</g>
</g>
<g id="bst" class="st0">
	<g class="st1">
		<g>
			<polygon points="-947.5,42.9 -927.6,77.4 -1027.1,249.8 -1066.9,249.8 			"/>
			<path d="M-920.9,88.9l14.2,24.5c3.6,6.2,3.6,13.7,0,19.9l-61.5,106.5c-3.6,6.2-10.1,10-17.2,10h-28.3L-920.9,88.9z"/>
			<path d="M-1131.5,16.9l-8.4,14.6l73,126.4l19.9-34.5l-61.5-106.5C-1113.6,8-1126.4,8-1131.5,16.9z"/>
			<path d="M-1101.9,28.2l-6.5-11.3c-5.1-8.8-17.9-8.8-23,0l-55.7,96.6c-3.6,6.2-3.6,13.7,0,19.9l14.2,24.5l55.9-96.8
				c3.5-5.8,9.8-9.7,17.1-9.7c7.3,0,13.6,3.9,17.1,9.7L-1101.9,28.2z"/>
			<path d="M-1168.4,97c-1.3-2.5-2-5.2-2-8.1c0-2.9,0.7-5.6,2-8.1l-7.8,13.6l0,0l-11,19c-3.6,6.2-3.6,13.7,0,19.9l61.5,106.5
				c1.8,3.1,4.3,5.6,7.3,7.3l18.4-31.8L-1168.4,97z"/>
			<path d="M-962.5,16.9c-5.1-8.8-17.9-8.8-23,0l-114.6,198.4l-2.9,5.1c-3.5,5.7-9.8,9.5-17,9.5c-7.2,0-13.5-3.8-17-9.5l11.2,19.5
				c1.8,3.1,4.3,5.6,7.3,7.3c3,1.7,6.4,2.7,10,2.7h28.3l126.1-218.3L-962.5,16.9z"/>
		</g>
		<g>
			<path class="st15" d="M-835.9,57.5h30.9v154.7h-30.9V57.5z"/>
			<path class="st15" d="M-768.1,57.5h31.6l44.9,82.4l15.5,33.4h1c-1.7-16.1-4-36.6-4-54.1V57.5h29.3v154.7h-31.4l-44.7-82.8
				l-15.7-33.2h-1c1.5,16.7,3.8,36.2,3.8,53.9v62.1h-29.3V57.5z"/>
			<path class="st15" d="M-581.4,83.2h-43.5V57.5h118.3v25.7h-43.9v129h-30.9V83.2z"/>
			<path class="st15" d="M-397.5,212.2l-31.8-58.5h-21.5v58.5h-30.9V57.5h53.9c32.4,0,58.1,11.3,58.1,46.8
				c0,23.2-11.7,37.6-29.5,44.5l36.2,63.3H-397.5z M-450.8,129.2h20.1c19.9,0,30.7-8.4,30.7-24.9c0-16.7-10.9-22.4-30.7-22.4h-20.1
				V129.2z"/>
			<path class="st15" d="M-348.5,134.2c0-50.4,28.2-79.7,69.2-79.7c41,0,69.2,29.5,69.2,79.7s-28.2,80.9-69.2,80.9
				C-320.3,215.2-348.5,184.4-348.5,134.2z M-241.7,134.2c0-33.2-14.6-53.1-37.6-53.1c-23,0-37.6,19.9-37.6,53.1
				c0,33,14.6,54.1,37.6,54.1C-256.3,188.4-241.7,167.3-241.7,134.2z"/>
		</g>
	</g>
</g>
<g id="bt" class="st0">
	<g class="st1">
		<g>
			<path class="st15" d="M-1189.9,8.9h48.4v242.2h-48.4V8.9z"/>
			<path class="st15" d="M-1083.7,8.9h49.4l70.4,129l24.2,52.4h1.6c-2.6-25.2-6.2-57.3-6.2-84.8V8.9h45.8v242.2h-49.1l-70.1-129.6
				l-24.6-52h-1.6c2.3,26.2,5.9,56.6,5.9,84.5v97.2h-45.8V8.9z"/>
			<path class="st15" d="M-791.4,49.1h-68.1V8.9h185.3v40.3H-743v202h-48.4V49.1z"/>
			<path class="st15" d="M-503.4,251.1l-49.8-91.7h-33.7v91.7h-48.4V8.9h84.5c50.7,0,91,17.7,91,73.3c0,36.3-18.3,58.9-46.2,69.7
				l56.6,99.2H-503.4z M-586.9,121.2h31.4c31.1,0,48.1-13.1,48.1-39c0-26.2-17-35-48.1-35h-31.4V121.2z"/>
			<path class="st15" d="M-426.8,129c0-78.9,44.2-124.7,108.4-124.7c64.2,0,108.3,46.2,108.3,124.7s-44.2,126.7-108.3,126.7
				C-382.6,255.7-426.8,207.6-426.8,129z M-259.5,129c0-52-22.9-83.1-58.9-83.1c-36,0-58.9,31.1-58.9,83.1
				c0,51.7,22.9,84.8,58.9,84.8C-282.4,213.8-259.5,180.7-259.5,129z"/>
		</g>
	</g>
</g>
<g id="wt" class="st0">
	<g class="st1">
		<g>
			<path class="st8" d="M-1189.9,8.9h48.4v242.2h-48.4V8.9z"/>
			<path class="st8" d="M-1083.7,8.9h49.4l70.4,129l24.2,52.4h1.6c-2.6-25.2-6.2-57.3-6.2-84.8V8.9h45.8v242.2h-49.1l-70.1-129.6
				l-24.6-52h-1.6c2.3,26.2,5.9,56.6,5.9,84.5v97.2h-45.8V8.9z"/>
			<path class="st8" d="M-791.4,49.1h-68.1V8.9h185.3v40.3H-743v202h-48.4V49.1z"/>
			<path class="st8" d="M-503.4,251.1l-49.8-91.7h-33.7v91.7h-48.4V8.9h84.5c50.7,0,91,17.7,91,73.3c0,36.3-18.3,58.9-46.2,69.7
				l56.6,99.2H-503.4z M-586.9,121.2h31.4c31.1,0,48.1-13.1,48.1-39c0-26.2-17-35-48.1-35h-31.4V121.2z"/>
			<path class="st8" d="M-426.8,129c0-78.9,44.2-124.7,108.4-124.7c64.2,0,108.3,46.2,108.3,124.7s-44.2,126.7-108.3,126.7
				C-382.6,255.7-426.8,207.6-426.8,129z M-259.5,129c0-52-22.9-83.1-58.9-83.1c-36,0-58.9,31.1-58.9,83.1
				c0,51.7,22.9,84.8,58.9,84.8C-282.4,213.8-259.5,180.7-259.5,129z"/>
		</g>
	</g>
</g>
</svg>
